<svg xmlns="http://www.w3.org/2000/svg" xmlns:xlink="http://www.w3.org/1999/xlink" width="87" height="87.5" viewBox="0 0 174 175"><defs><path id="a" d="M1900 1136a61 61 0 1 1 0 122 61 61 0 0 1 0-122z"/><path id="g" d="M1899 1208c-.43 0-.86-.17-1.2-.5l-10.31-10.56a1.75 1.75 0 0 1 0-2.44 1.65 1.65 0 0 1 2.37 0l9.14 9.35 9.13-9.35a1.65 1.65 0 0 1 2.37 0c.66.68.66 1.76 0 2.44l-10.32 10.55c-.32.34-.75.5-1.18.5z"/><mask id="c" width="2" height="2" x="-1" y="-1"><path fill="#fff" d="M1839 1136h122v122h-122z"/><use xlink:href="#a"/></mask><filter id="b" width="192" height="207" x="1804" y="1126" filterUnits="userSpaceOnUse"><feOffset dy="15" in="SourceGraphic" result="FeOffset1149Out"/><feGaussianBlur in="FeOffset1149Out" result="FeGaussianBlur1150Out" stdDeviation="10 10"/></filter><mask id="e" width="2" height="2" x="-1" y="-1"><path fill="#fff" d="M1839 1136h122v122h-122z"/><use xlink:href="#a"/></mask><filter id="d" width="162" height="165" x="1819" y="1126" filterUnits="userSpaceOnUse"><feOffset dy="3" in="SourceGraphic" result="FeOffset1160Out"/><feGaussianBlur in="FeOffset1160Out" result="FeGaussianBlur1161Out" stdDeviation="4 4"/></filter><clipPath id="f"><use fill="#fff" xlink:href="#a"/></clipPath></defs><g transform="translate(-1813 -1125)"><g filter="url(#b)"><use fill="none" stroke-opacity=".28" stroke-width="0" mask="url(&quot;#c&quot;)" xlink:href="#a"/><use fill="#5c5f65" fill-opacity=".28" xlink:href="#a"/></g><g filter="url(#d)"><use fill="none" stroke-opacity=".15" stroke-width="0" mask="url(&quot;#e&quot;)" xlink:href="#a"/><use fill="#3d3d3e" fill-opacity=".15" xlink:href="#a"/></g><use fill="#fff" fill-opacity="0" stroke="#fff" stroke-miterlimit="50" stroke-width="2" clip-path="url(&quot;#f&quot;)" xlink:href="#a"/><g><use fill="#eab96a" xlink:href="#g"/></g></g></svg>