<svg xmlns="http://www.w3.org/2000/svg" xmlns:xlink="http://www.w3.org/1999/xlink" width="31.5" height="31" viewBox="0 0 63 62"><defs><path id="a" d="M2181 2914c0 16.54-13.46 30-30 30s-30-13.46-30-30 13.46-30 30-30 30 13.46 30 30zm-2 0c0-15.44-12.56-28-28-28s-28 12.56-28 28 12.56 28 28 28 28-12.56 28-28zm-24-.12a4 4 0 1 1-7.86 1H2140a1 1 0 1 1 0-2h7.14a4 4 0 0 1 2.86-2.86v-10.14a1 1 0 0 1 2 0v10.14a4 4 0 0 1 3 3.86zm-2 0a2 2 0 1 0-4 0 2 2 0 0 0 4 0zm-3-21v-1a1 1 0 0 1 2 0v1a1 1 0 1 1-2 0zm2 42v1a1 1 0 1 1-2 0v-1a1 1 0 0 1 2 0zm22-21a1 1 0 0 1-1 1h-1a1 1 0 1 1 0-2h1a1 1 0 0 1 1 1zm-43 0a1 1 0 0 1-1 1h-1a1 1 0 1 1 0-2h1a1 1 0 0 1 1 1zm36.26-16.26a1 1 0 0 1 0 1.4l-.7.72a1 1 0 1 1-1.42-1.42l.7-.7a1 1 0 0 1 1.42 0zm-30.4 30.4a1 1 0 0 1 0 1.42l-.7.7a1 1 0 1 1-1.42-1.41l.7-.7a1 1 0 0 1 1.42 0zm30.4.7a1 1 0 1 1-1.41 1.42l-.7-.7a1 1 0 1 1 1.4-1.42zm-30.4-30.4a1 1 0 1 1-1.42 1.42l-.7-.71a1 1 0 1 1 1.41-1.41z"/></defs><use xlink:href="#a" transform="translate(-2120 -2883)"/></svg>