<svg xmlns="http://www.w3.org/2000/svg" xmlns:xlink="http://www.w3.org/1999/xlink" width="29.5" height="29.5" viewBox="0 0 59 59"><defs><path id="a" d="M2178.62 2827.04l-5.6 5.28 1.32 7.44a1 1 0 0 1-.98 1.17.99.99 0 0 1-.45-.1l-6.96-3.54-6.96 3.53a1 1 0 0 1-1.04-.08 1 1 0 0 1-.4-.98l1.33-7.44-5.6-5.28a1 1 0 0 1 .54-1.72l7.77-1.1 3.47-6.78c.34-.67 1.44-.67 1.78 0l3.46 6.79 7.77 1.09a1 1 0 0 1 .55 1.72zm-2.9-.03l-6.2-.87a1 1 0 0 1-.76-.54l-2.81-5.5-2.82 5.5a1 1 0 0 1-.75.54l-6.22.87 4.48 4.22a1 1 0 0 1 .3.9l-1.07 6 5.63-2.86a1 1 0 0 1 .9 0l5.62 2.86-1.06-6a1 1 0 0 1 .3-.9zm-5.78-29.99a1 1 0 0 1-1 1h-17.97a1 1 0 0 1-1-1 1 1 0 0 1 1-1h17.97a1 1 0 0 1 1 1zm0 14.03a1 1 0 0 1-1 1h-17.97a1 1 0 0 1-1-1 1 1 0 0 1 1-1h17.97a1 1 0 0 1 1 1zm-25.28-18.38l-6.85 8a1 1 0 0 1-1.35.16l-4.57-3.44a1 1 0 0 1 1.2-1.6l3.82 2.87 6.24-7.3a1 1 0 0 1 1.52 1.3zm0 14.02l-6.85 8.01a1 1 0 0 1-1.35.15l-4.57-3.43a1 1 0 0 1 1.2-1.6l3.82 2.87 6.24-7.3a1 1 0 0 1 1.52 1.3zm-.1 13.61a1 1 0 0 1 .1 1.42l-6.85 8a1 1 0 0 1-1.35.16l-4.57-3.44a1 1 0 0 1 1.2-1.6l3.82 2.87 6.24-7.3a1 1 0 0 1 1.4-.1zm7.4 16.8a1 1 0 0 1-1 1h-14.8a12.2 12.2 0 0 1-12.16-12.2v-29.7a12.2 12.2 0 0 1 12.16-12.2h29.61a12.2 12.2 0 0 1 12.16 12.2v23.94a1 1 0 1 1-2 0v-23.94c0-5.62-4.55-10.2-10.16-10.2h-29.61c-5.6 0-10.16 4.58-10.16 10.2v29.7c0 5.62 4.55 10.2 10.16 10.2h14.8a1 1 0 0 1 1 1z"/></defs><use xlink:href="#a" transform="translate(-2122 -2783)"/></svg>